<svg width="108" height="108" viewBox="0 0 108 108" fill="none" xmlns="http://www.w3.org/2000/svg">
<path d="M74.25 87.4294C76.5781 86.5121 78.8344 85.422 81 84.1683V101.25C81 102.145 80.6444 103.004 80.0115 103.636C79.3785 104.269 78.5201 104.625 77.625 104.625C76.7299 104.625 75.8714 104.269 75.2385 103.636C74.6056 103.004 74.25 102.145 74.25 101.25V87.4294ZM79.2112 50.123L55.5862 37.5216C54.798 37.119 53.8832 37.0421 53.0388 37.3076C52.1945 37.573 51.4882 38.1595 51.0722 38.9407C50.6561 39.7219 50.5636 40.6353 50.8145 41.4841C51.0655 42.3328 51.6398 43.0491 52.4137 43.4784L72.1406 54L79.3125 50.1778L79.2112 50.123ZM106.211 37.5216L55.5862 10.5216C55.0979 10.2616 54.5532 10.1256 54 10.1256C53.4468 10.1256 52.902 10.2616 52.4137 10.5216L1.78873 37.5216C1.24875 37.8093 0.797161 38.2385 0.48227 38.7631C0.16738 39.2878 0.0010376 39.8881 0.0010376 40.5C0.0010376 41.1119 0.16738 41.7122 0.48227 42.2369C0.797161 42.7615 1.24875 43.1907 1.78873 43.4784L13.5 49.7264V70.1536C13.4965 71.8114 14.1066 73.4118 15.2128 74.6466C20.7394 80.8017 33.1214 91.125 54 91.125C60.9227 91.1823 67.7937 89.9283 74.25 87.4294V55.1264L72.1406 54L54 63.6736L18.4908 44.7188L10.5469 40.5L54 17.3264L97.4531 40.5L89.5303 44.7188H89.505L79.3125 50.1778C79.8257 50.4741 80.2518 50.9003 80.548 51.4135C80.8442 51.9267 81.0001 52.5088 81 53.1014V84.1683C85.401 81.6277 89.378 78.4151 92.7872 74.6466C93.8934 73.4118 94.5035 71.8114 94.5 70.1536V49.7264L106.211 43.4784C106.751 43.1907 107.203 42.7615 107.518 42.2369C107.833 41.7122 107.999 41.1119 107.999 40.5C107.999 39.8881 107.833 39.2878 107.518 38.7631C107.203 38.2385 106.751 37.8093 106.211 37.5216Z" fill="#7367F0"/>
</svg>
