<svg width="181" height="44" viewBox="0 0 181 44" fill="none" xmlns="http://www.w3.org/2000/svg">
<path d="M57.1388 10.88L43.3162 15.86C43.2543 15.8814 43.1875 15.8814 43.1256 15.86L29.2744 10.89C29.216 10.8673 29.1657 10.8263 29.1302 10.7727C29.0947 10.7191 29.0756 10.6553 29.0756 10.59C29.0756 10.5247 29.0947 10.4609 29.1302 10.4073C29.1657 10.3537 29.216 10.3127 29.2744 10.29L43.1352 5.24C43.1999 5.21638 43.2704 5.21638 43.3352 5.24L57.1484 10.28C57.2064 10.3037 57.2561 10.3455 57.2907 10.3998C57.3254 10.454 57.3435 10.5181 57.3424 10.5835C57.3414 10.6488 57.3213 10.7122 57.2849 10.7653C57.2485 10.8183 57.1976 10.8583 57.1388 10.88Z" fill="#7367F0"/>
<path d="M30.9796 16.68C31.3225 16.9 31.5035 17.2033 31.5226 17.59C31.5416 18.0433 31.3225 18.3467 30.8653 18.5C30.7764 18.5333 30.6906 18.5367 30.6081 18.51C30.2651 18.4033 30.1286 18.17 30.1984 17.81C30.4842 16.2833 30.5287 14.8133 30.3318 13.4C30.3127 13.2667 30.3667 13.1867 30.4937 13.16L30.7319 13.12C30.7393 13.1188 30.7469 13.1194 30.7543 13.1217C30.7617 13.1241 30.7686 13.1282 30.7748 13.1338C30.781 13.1393 30.7863 13.1463 30.7904 13.1542C30.7945 13.1622 30.7972 13.1709 30.7986 13.18C30.9637 14.0733 30.9192 14.9367 30.6652 15.77C30.5445 16.1567 30.6493 16.46 30.9796 16.68Z" fill="#7367F0"/>
<path d="M50.2323 14.17C50.7086 13.95 51.1976 13.8 51.6993 13.72C52.1439 13.6533 52.3693 13.8567 52.3757 14.33L52.3947 17.24C52.3965 17.3472 52.3766 17.4536 52.3364 17.5523C52.2962 17.6511 52.2365 17.74 52.1612 17.8134C52.0858 17.8869 51.9965 17.9432 51.8989 17.9787C51.8014 18.0143 51.6977 18.0284 51.5945 18.02C48.0952 17.6867 45.4215 19.1767 43.5734 22.49C43.5358 22.5551 43.4827 22.6089 43.4194 22.646C43.3561 22.683 43.285 22.702 43.2133 22.701C43.1416 22.7 43.0718 22.679 43.0112 22.6402C42.9506 22.6013 42.9014 22.5461 42.8684 22.48C41.2362 19.3133 38.7181 17.8333 35.3141 18.04C34.9076 18.0667 34.7012 17.8633 34.6948 17.43L34.6567 14.13C34.6568 14.0438 34.6776 13.9591 34.7172 13.8837C34.7569 13.8082 34.8141 13.7446 34.8836 13.6986C34.953 13.6527 35.0324 13.626 35.1143 13.621C35.1963 13.616 35.2781 13.6328 35.3522 13.67C37.2193 14.6233 39.2929 15.4967 41.5728 16.29C42.7478 16.6967 43.875 16.7067 44.9547 16.32C46.7964 15.66 48.5556 14.9433 50.2323 14.17Z" fill="#7367F0"/>
<path d="M66.2555 35.72L62.8356 35.75C62.7547 35.75 62.6772 35.7163 62.62 35.6563C62.5629 35.5963 62.5307 35.5149 62.5307 35.43L62.5212 14.6C62.5211 14.5185 62.5505 14.44 62.6037 14.3805C62.6568 14.321 62.7295 14.2851 62.807 14.28L66.2079 14.09C66.2495 14.0873 66.2912 14.0935 66.3304 14.1084C66.3696 14.1232 66.4055 14.1464 66.4359 14.1763C66.4662 14.2063 66.4904 14.2425 66.5069 14.2827C66.5234 14.3229 66.5319 14.3662 66.5318 14.41L66.427 25.85C66.427 25.9163 66.4466 25.9811 66.4831 26.0352C66.5196 26.0893 66.5713 26.1302 66.6309 26.1522C66.6906 26.1742 66.7552 26.1761 66.816 26.1578C66.8767 26.1395 66.9306 26.1018 66.97 26.05L71.7617 19.61C71.7913 19.5712 71.8291 19.5401 71.8721 19.5193C71.9151 19.4985 71.9621 19.4884 72.0094 19.49L76.4106 19.52C76.47 19.5205 76.5279 19.5391 76.5774 19.5737C76.6268 19.6083 76.6655 19.6572 76.6888 19.7146C76.7121 19.7719 76.7189 19.8352 76.7084 19.8966C76.6979 19.9579 76.6705 20.0147 76.6297 20.06L70.1423 27.46C70.0887 27.5194 70.0588 27.5982 70.0588 27.68C70.0588 27.7618 70.0887 27.8406 70.1423 27.9L76.7345 35.25C76.7766 35.2965 76.8044 35.3552 76.8144 35.4185C76.8243 35.4818 76.8159 35.5467 76.7902 35.6049C76.7645 35.6632 76.7228 35.7119 76.6704 35.7449C76.618 35.7779 76.5573 35.7936 76.4963 35.79L71.9332 35.62C71.8883 35.6174 71.8446 35.6043 71.805 35.5819C71.7655 35.5594 71.7312 35.528 71.7046 35.49L66.9224 29.14C66.8824 29.0874 66.8277 29.0494 66.766 29.0313C66.7043 29.0132 66.6388 29.016 66.5787 29.0393C66.5186 29.0625 66.467 29.105 66.4312 29.1608C66.3954 29.2166 66.3773 29.2828 66.3794 29.35L66.5604 35.39C66.5616 35.4329 66.5547 35.4755 66.54 35.5155C66.5252 35.5555 66.503 35.592 66.4745 35.6228C66.4461 35.6535 66.412 35.678 66.3744 35.6947C66.3368 35.7114 66.2964 35.72 66.2555 35.72Z" fill="#7367F0"/>
<path d="M19.0431 30.62L20.3006 29.16C21.2469 28.0533 21.0119 27.5 19.5956 27.5H14.4895C13.9878 27.5 13.756 27.2367 13.7941 26.71L13.9084 25.21C13.9465 24.67 14.2228 24.4033 14.7372 24.41L24.0825 24.42C24.2233 24.4198 24.3586 24.476 24.4599 24.5768C24.5612 24.6775 24.6206 24.8149 24.6255 24.96C24.8415 31.0133 22.1233 34.59 16.471 35.69C3.27705 38.24 -0.142895 16.02 14.6419 15.22C18.9097 14.9867 22.0248 16.84 23.9873 20.78C24.0267 20.8631 24.0455 20.9556 24.0417 21.0483C24.038 21.1411 24.0118 21.2311 23.9658 21.3095C23.9199 21.388 23.8556 21.4523 23.7792 21.4961C23.7029 21.54 23.617 21.562 23.53 21.56L20.4911 21.5C20.0592 21.4867 19.6972 21.3133 19.4051 20.98C17.9666 19.31 15.7946 18.29 13.6226 18.95C6.35405 21.14 7.70679 32.21 15.4422 32.29C16.8838 32.3033 18.0841 31.7467 19.0431 30.62Z" fill="#7367F0"/>
<path d="M31.1892 28.9C31.0921 28.901 30.9968 28.9279 30.9123 28.9783C30.8279 29.0286 30.7571 29.1008 30.7066 29.1878C30.656 29.2749 30.6275 29.374 30.6236 29.4759C30.6197 29.5777 30.6406 29.679 30.6843 29.77C31.7639 32.09 33.2468 33.0533 35.1331 32.66C35.5332 32.5733 35.8825 32.3867 36.181 32.1C37.5464 30.7667 39.2992 30.3567 41.4395 30.87C41.4888 30.8818 41.5348 30.9055 41.5738 30.9393C41.6129 30.9731 41.6438 31.016 41.6642 31.0646C41.6845 31.1132 41.6938 31.1662 41.6912 31.2192C41.6885 31.2722 41.6741 31.3239 41.6491 31.37C40.0042 34.4833 37.521 35.9767 34.1995 35.85C29.9126 35.6833 27.4453 33.43 26.7975 29.09C25.864 22.83 30.6271 18.06 36.4572 19.53C40.0486 20.43 42.6684 24.03 42.1825 27.98C42.119 28.48 41.8491 28.7333 41.3728 28.74L31.1892 28.9ZM35.6856 24.61C36.1682 25.0367 36.5557 25.5533 36.8478 26.16C36.8857 26.2385 36.9393 26.3075 37.005 26.3623C37.0706 26.417 37.1468 26.4561 37.2283 26.477C37.3097 26.4979 37.3945 26.5001 37.4768 26.4833C37.5592 26.4666 37.637 26.4313 37.7052 26.38L37.9624 26.19C38.0452 26.1268 38.1059 26.0367 38.1352 25.9337C38.1644 25.8307 38.1606 25.7205 38.1243 25.62C36.6573 21.43 31.3702 21.44 30.6271 25.94C30.6017 26.1067 30.6525 26.2367 30.7795 26.33C30.8748 26.41 30.9764 26.47 31.0844 26.51C31.3575 26.6033 31.5861 26.5333 31.7703 26.3L32.9134 24.86C33.0787 24.6508 33.2819 24.4781 33.5113 24.3521C33.7407 24.2261 33.9917 24.1492 34.2497 24.1259C34.5076 24.1027 34.7674 24.1335 35.0139 24.2166C35.2604 24.2997 35.4888 24.4334 35.6856 24.61Z" fill="#7367F0"/>
<path d="M48.9938 28.84C48.2 28.8333 47.9428 29.2233 48.2222 30.01C48.5652 30.9633 49.1431 31.6867 49.956 32.18C50.68 32.62 51.4548 32.7633 52.2804 32.61C53.2457 32.43 54.0904 31.92 54.8144 31.08C54.9016 30.9791 55.0068 30.8985 55.1233 30.8434C55.2398 30.7883 55.365 30.7599 55.4908 30.76L58.5392 30.74C59.2314 30.74 59.387 31.0433 59.006 31.65C56.5546 35.57 53.1918 36.7833 48.9176 35.29C41.3156 32.63 43.1542 19.27 51.7279 19.32C56.7006 19.3467 59.387 22.1167 59.7872 27.63C59.799 27.7871 59.7797 27.9451 59.7305 28.0939C59.6812 28.2428 59.6031 28.3794 59.501 28.4949C59.399 28.6105 59.2752 28.7026 59.1375 28.7655C58.9999 28.8283 58.8513 28.8605 58.7012 28.86L48.9938 28.84ZM52.7758 24.44C53.3537 24.86 53.8967 25.43 54.4048 26.15C54.479 26.2603 54.5841 26.3436 54.7054 26.3883C54.8268 26.4331 54.9584 26.437 55.082 26.3996C55.2056 26.3622 55.3151 26.2854 55.3951 26.1797C55.4752 26.074 55.522 25.9448 55.5289 25.81C55.5924 24.79 55.1669 23.99 54.2524 23.41C51.5088 21.6567 49.4987 22.3733 48.2222 25.56C47.9174 26.3267 48.1396 26.5733 48.889 26.3C49.5686 26.0533 50.0957 25.6033 50.4704 24.95C50.585 24.7532 50.7368 24.583 50.9165 24.4499C51.0963 24.3168 51.3002 24.2236 51.5158 24.1759C51.7315 24.1282 51.9545 24.127 52.1711 24.1724C52.3877 24.2178 52.5934 24.3088 52.7758 24.44Z" fill="#7367F0"/>
<path d="M146.686 12.04L147.839 13.2C147.885 13.246 147.921 13.302 147.944 13.364C147.967 13.426 147.978 13.4927 147.974 13.5593C147.97 13.6258 147.953 13.6908 147.923 13.7496C147.893 13.8085 147.851 13.8598 147.801 13.9L146.81 14.68C146.724 14.7479 146.618 14.7804 146.51 14.7712C146.403 14.762 146.303 14.7117 146.229 14.63L143.943 12.06C143.865 11.9729 143.822 11.8574 143.824 11.738C143.826 11.6185 143.872 11.5045 143.952 11.42L147.725 7.47C147.8 7.38978 147.901 7.34139 148.008 7.33402C148.115 7.32664 148.221 7.3608 148.306 7.43L149.277 8.22C149.329 8.2609 149.371 8.31331 149.402 8.37347C149.432 8.43362 149.449 8.50003 149.451 8.56792C149.454 8.6358 149.443 8.70348 149.417 8.76609C149.392 8.82869 149.354 8.88467 149.306 8.93L146.696 11.37C146.652 11.4123 146.616 11.4637 146.592 11.5209C146.567 11.5782 146.554 11.6401 146.553 11.7028C146.552 11.7656 146.564 11.8279 146.586 11.8859C146.609 11.9439 146.643 11.9963 146.686 12.04Z" fill="#FFAD5F"/>
<path d="M150.944 12.73C150.602 12.6633 150.294 12.51 150.02 12.27C149.595 11.8967 149.604 11.5333 150.049 11.18L150.916 10.48C151.151 10.2867 151.37 10.3067 151.573 10.54L153.517 12.84C153.809 13.1933 153.799 13.5333 153.488 13.86L150.259 17.24C149.82 17.6933 149.341 17.7533 148.82 17.42L148.468 17.2C148.048 16.9333 148.014 16.6233 148.363 16.27L151.145 13.42C151.194 13.3674 151.229 13.3018 151.246 13.2301C151.263 13.1583 151.261 13.0831 151.24 13.0124C151.22 12.9417 151.182 12.8782 151.129 12.8284C151.077 12.7787 151.013 12.7447 150.944 12.73Z" fill="#FFAD5F"/>
<path d="M84.2984 21.08C85.3844 20.39 86.2798 19.53 87.6135 19.32C92.5005 18.58 95.0155 22.72 94.8535 27.35C94.7583 30.1167 94.7392 32.75 94.7964 35.25C94.8027 35.5767 94.6503 35.74 94.3391 35.74L91.2621 35.75C91.0462 35.75 90.9414 35.64 90.9477 35.42C91.0176 32.46 90.9986 29.57 90.8906 26.75C90.7572 23.07 87.1753 21.01 84.689 24.12C83.1362 26.06 83.8792 32.47 83.9078 34.84C83.9092 34.9445 83.8902 35.0483 83.8522 35.1449C83.8141 35.2415 83.7577 35.3289 83.6864 35.4019C83.6151 35.4749 83.5304 35.5319 83.4374 35.5694C83.3445 35.6069 83.2452 35.6241 83.1457 35.62L80.6212 35.54C80.0623 35.5267 79.7829 35.2233 79.7829 34.63V20C79.7829 19.87 79.8331 19.7454 79.9224 19.6535C80.0117 19.5616 80.1329 19.51 80.2592 19.51L83.079 19.5C83.4092 19.5 83.6157 19.6667 83.6982 20C83.7554 20.2333 83.7713 20.4733 83.7458 20.72C83.7014 21.22 83.8856 21.34 84.2984 21.08Z" fill="#FFAD5F"/>
<path d="M113.773 27.61C113.773 29.8537 112.924 32.0056 111.412 33.5921C109.901 35.1787 107.851 36.07 105.714 36.07C103.576 36.07 101.526 35.1787 100.015 33.5921C98.5034 32.0056 97.6543 29.8537 97.6543 27.61C97.6543 25.3663 98.5034 23.2144 100.015 21.6279C101.526 20.0413 103.576 19.15 105.714 19.15C107.851 19.15 109.901 20.0413 111.412 21.6279C112.924 23.2144 113.773 25.3663 113.773 27.61ZM105.765 32.5391C106.854 32.5171 107.889 31.9778 108.642 31.0398C109.395 30.1018 109.804 28.8419 109.78 27.5373C109.769 26.8913 109.651 26.2538 109.434 25.6611C109.216 25.0685 108.904 24.5323 108.515 24.0832C108.125 23.6341 107.666 23.2808 107.163 23.0437C106.661 22.8065 106.124 22.69 105.585 22.7009C104.497 22.7229 103.462 23.2622 102.709 24.2002C101.956 25.1382 101.546 26.3981 101.57 27.7027C101.582 28.3487 101.7 28.9862 101.917 29.5789C102.134 30.1715 102.447 30.7077 102.836 31.1568C103.226 31.6059 103.685 31.9592 104.188 32.1963C104.69 32.4335 105.226 32.55 105.765 32.5391Z" fill="#FFAD5F"/>
<path d="M121.337 20.95C124.779 18.33 127.818 18.71 130.453 22.09C130.644 22.3367 130.844 22.3433 131.054 22.11C136.341 16.14 143.314 20.18 142.638 27.98C142.434 30.3267 142.444 32.63 142.666 34.89C142.677 34.9964 142.666 35.104 142.635 35.2057C142.604 35.3075 142.553 35.401 142.486 35.4803C142.418 35.5596 142.336 35.6229 142.244 35.6659C142.152 35.7089 142.052 35.7308 141.952 35.73L139.256 35.75C138.862 35.7567 138.659 35.5533 138.646 35.14C138.563 32.9267 138.57 30.4433 138.665 27.69C138.894 21.02 131.654 21.5 131.692 26.77C131.711 29.6033 131.708 32.38 131.682 35.1C131.682 35.58 131.454 35.8033 130.996 35.77L128.11 35.57C128.032 35.5637 127.956 35.5411 127.886 35.5036C127.817 35.4662 127.755 35.4146 127.705 35.352C127.655 35.2894 127.618 35.2171 127.596 35.1395C127.574 35.0618 127.567 34.9803 127.576 34.9C127.951 31.4267 127.945 28.4567 127.557 25.99C126.738 20.79 120.746 22.18 120.613 27.39C120.549 29.9567 120.549 32.6 120.613 35.32C120.619 35.5933 120.489 35.73 120.222 35.73L117.174 35.75C117.047 35.75 116.926 35.6973 116.837 35.6036C116.748 35.5098 116.697 35.3826 116.697 35.25V20.38C116.697 19.8 116.974 19.51 117.526 19.51L119.698 19.5C120.13 19.5 120.4 19.72 120.508 20.16L120.641 20.68C120.749 21.1267 120.981 21.2167 121.337 20.95Z" fill="#FFAD5F"/>
<path d="M149.731 19.4974L146.892 19.5026C146.597 19.5032 146.359 19.7543 146.359 20.0636L146.384 35.1636C146.385 35.4728 146.624 35.7231 146.919 35.7226L149.758 35.7174C150.052 35.7168 150.291 35.4657 150.29 35.1564L150.265 20.0564C150.265 19.7472 150.025 19.4969 149.731 19.4974Z" fill="#FFAD5F"/>
<path d="M159.48 31.1L157.108 35.27C157.069 35.3382 157.015 35.3955 156.95 35.4373C156.885 35.479 156.812 35.504 156.736 35.51L153.431 35.81C153.34 35.8184 153.249 35.7993 153.168 35.7549C153.087 35.7105 153.02 35.6426 152.975 35.5594C152.93 35.4762 152.908 35.3812 152.913 35.2855C152.918 35.1899 152.949 35.0977 153.002 35.02L157.737 27.92C157.794 27.8353 157.825 27.734 157.825 27.63C157.825 27.5261 157.794 27.4247 157.737 27.34L153.012 20.24C152.962 20.1637 152.934 20.0746 152.93 19.9825C152.926 19.8905 152.947 19.7991 152.989 19.7184C153.031 19.6377 153.094 19.5708 153.17 19.5252C153.247 19.4796 153.334 19.4571 153.421 19.46L156.841 19.58C156.918 19.5834 156.992 19.6061 157.059 19.6461C157.125 19.6861 157.181 19.7424 157.222 19.81L159.871 24.17C159.915 24.2431 159.977 24.3028 160.05 24.3432C160.124 24.3835 160.206 24.4032 160.288 24.4001C160.371 24.3971 160.452 24.3715 160.522 24.3259C160.592 24.2803 160.65 24.2162 160.69 24.14L162.919 19.92C162.959 19.8426 163.019 19.7777 163.09 19.7321C163.162 19.6864 163.245 19.6615 163.329 19.66L166.444 19.64C166.532 19.6376 166.62 19.6612 166.696 19.708C166.773 19.7548 166.835 19.8231 166.877 19.9051C166.918 19.9872 166.937 20.0797 166.931 20.1724C166.926 20.2651 166.895 20.3543 166.844 20.43L162.347 27.26C162.294 27.3427 162.266 27.4402 162.266 27.54C162.266 27.6398 162.294 27.7373 162.347 27.82L166.815 34.92C166.865 34.9963 166.893 35.0854 166.897 35.1775C166.901 35.2695 166.88 35.3609 166.838 35.4416C166.796 35.5223 166.733 35.5892 166.657 35.6348C166.58 35.6804 166.493 35.7029 166.406 35.7L163.148 35.62C163.066 35.6178 162.987 35.5936 162.917 35.5498C162.846 35.506 162.788 35.4441 162.748 35.37L160.299 31.1C160.257 31.0254 160.197 30.9636 160.125 30.9207C160.054 30.8777 159.972 30.8552 159.89 30.8552C159.807 30.8552 159.726 30.8777 159.654 30.9207C159.582 30.9636 159.522 31.0254 159.48 31.1Z" fill="#FFAD5F"/>
</svg>
